HIERARCHY
ROOT root
{
	OFFSET 0.000000 0.000000 0.000000
	CHANNELS 6 Xposition Yposition Zposition Zrotation Yrotation Xrotation
	JOINT lhip
	{
		OFFSET 0.058581 -0.082280 -0.017664
		CHANNELS 3 Zrotation Yrotation Xrotation
		JOINT lknee
		{
			OFFSET 0.043451 -0.386469 0.008037
			CHANNELS 3 Zrotation Yrotation Xrotation
			JOINT lankle
			{
				OFFSET -0.014790 -0.426874 -0.037428
				CHANNELS 3 Zrotation Yrotation Xrotation
				JOINT ltoe
				{
					OFFSET 0.041054 -0.060286 0.122042
					CHANNELS 3 Zrotation Yrotation Xrotation
					End Site
					{
						OFFSET 0.000000 0.000000 0.000000
					}
				}
			}
		}
	}
	JOINT rhip
	{
		OFFSET -0.060310 -0.090513 -0.013543
		CHANNELS 3 Zrotation Yrotation Xrotation
		JOINT rknee
		{
			OFFSET -0.043257 -0.383688 -0.004843
			CHANNELS 3 Zrotation Yrotation Xrotation
			JOINT rankle
			{
				OFFSET 0.019056 -0.420046 -0.034562
				CHANNELS 3 Zrotation Yrotation Xrotation
				JOINT rtoe
				{
					OFFSET -0.034840 -0.062106 0.130323
					CHANNELS 3 Zrotation Yrotation Xrotation
					End Site
					{
						OFFSET 0.000000 0.000000 0.000000
					}
				}
			}
		}
	}
	JOINT lowerback
	{
		OFFSET 0.004439 0.124404 -0.038385
		CHANNELS 3 Zrotation Yrotation Xrotation
		JOINT upperback
		{
			OFFSET 0.004488 0.137956 0.026820
			CHANNELS 3 Zrotation Yrotation Xrotation
			JOINT chest
			{
				OFFSET -0.002265 0.056032 0.002855
				CHANNELS 3 Zrotation Yrotation Xrotation
				JOINT lowerneck
				{
					OFFSET -0.013390 0.211636 -0.033468
					CHANNELS 3 Zrotation Yrotation Xrotation
					JOINT upperneck
					{
						OFFSET 0.010113 0.088937 0.050410
						CHANNELS 3 Zrotation Yrotation Xrotation
						End Site
						{
							OFFSET 0.000000 0.000000 0.000000
						}
					}
				}
				JOINT lclavicle
				{
					OFFSET 0.071702 0.114000 -0.018898
					CHANNELS 3 Zrotation Yrotation Xrotation
					JOINT lshoulder
					{
						OFFSET 0.122921 0.045205 -0.019046
						CHANNELS 3 Zrotation Yrotation Xrotation
						JOINT lelbow
						{
							OFFSET 0.255332 -0.015649 -0.022946
							CHANNELS 3 Zrotation Yrotation Xrotation
							JOINT lwrist
							{
								OFFSET 0.265709 0.012698 -0.007375
								CHANNELS 3 Zrotation Yrotation Xrotation
								End Site
								{
									OFFSET 0.000000 0.000000 0.000000
								}
							}
						}
					}
				}
				JOINT rclavicle
				{
					OFFSET -0.082954 0.112472 -0.023707
					CHANNELS 3 Zrotation Yrotation Xrotation
					JOINT rshoulder
					{
						OFFSET -0.113228 0.046853 -0.008472
						CHANNELS 3 Zrotation Yrotation Xrotation
						JOINT relbow
						{
							OFFSET -0.260127 -0.014369 -0.031269
							CHANNELS 3 Zrotation Yrotation Xrotation
							JOINT rwrist
							{
								OFFSET -0.269108 0.006794 -0.006027
								CHANNELS 3 Zrotation Yrotation Xrotation
								End Site
								{
									OFFSET 0.000000 0.000000 0.000000
								}
							}
						}
					}
				}
			}
		}
	}
}
MOTION
Frames: 10
Frame Time: 0.033333
0.213381 -0.348990 0.880999 -4.283277 0.201705 81.474924 3.770859 0.115977 -14.917780 -6.573715 2.575296 52.427592 3.359339 12.292026 -33.598485 0.000000 -0.000000 0.000000 -1.424790 2.267814 -20.056775 2.439552 1.439773 59.304178 1.153414 -10.278561 -31.623659 0.000000 -0.000000 0.000000 -1.486485 0.949584 14.717359 2.644413 -2.194729 3.939882 0.086109 0.695824 -2.625123 -1.218847 8.639644 0.405109 -0.403897 4.328297 -3.516566 -18.043749 -14.592127 -1.923308 -30.521979 -7.439218 3.612574 24.449879 -77.437228 5.859258 -38.864731 -2.535084 11.314719 21.484705 15.742417 2.759309 29.662262 10.004284 4.561162 -53.375868 78.580805 -22.006528 45.903289 -11.819228 9.591209 
0.213365 -0.348791 0.880943 -4.250091 0.201273 81.461735 3.839640 -0.109978 -14.890669 -6.477410 2.842223 52.379385 3.335824 12.117809 -33.641791 0.000000 -0.000000 0.000000 -1.433981 2.222965 -20.028894 1.983820 1.243579 59.274604 1.016831 -9.720106 -31.622234 0.000000 -0.000000 0.000000 -1.488334 1.026590 14.560662 2.772006 -2.365604 4.259874 -0.009271 0.725092 -2.805610 -1.015330 8.720781 0.592192 -0.554407 3.893729 -3.651794 -18.172000 -14.568583 -1.846169 -30.352179 -7.574025 3.787865 24.649064 -77.357131 5.736769 -38.494841 -2.838953 11.262999 21.555742 15.647341 2.765658 29.708768 10.031682 4.615109 -53.002700 78.517135 -20.956116 46.135891 -11.379793 8.849578 
0.213192 -0.348741 0.881367 -4.325127 0.100255 81.215563 3.706834 -0.030185 -14.512646 -6.413864 2.815960 52.237128 3.299372 12.062402 -33.693665 0.000000 -0.000000 0.000000 -1.472463 2.098433 -19.750321 1.728145 1.274560 59.236113 0.960515 -9.398765 -31.820373 0.000000 -0.000000 0.000000 -1.599338 1.163008 14.911272 2.745138 -2.451433 4.205122 0.041285 0.743404 -2.981185 -0.864510 8.688558 0.866013 -0.579156 3.723549 -3.695854 -18.200402 -14.592829 -1.826353 -30.354653 -7.437828 3.948753 25.273833 -77.378596 5.012726 -38.019953 -2.986788 11.401263 21.555139 15.695216 2.597525 29.877847 9.797071 4.739713 -52.888212 78.566543 -20.759725 46.219773 -11.287556 8.749831 
0.213225 -0.347401 0.880748 -4.377630 0.232217 81.382336 3.868364 -0.167427 -14.824469 -6.387784 2.943399 52.339085 3.224729 12.052364 -33.732047 0.000000 -0.000000 0.000000 -1.371340 2.249747 -20.159000 1.719142 1.128037 59.434370 0.882485 -9.390279 -31.843235 0.000000 -0.000000 0.000000 -1.467945 1.045601 14.786072 2.806509 -2.386370 4.103769 -0.058339 0.808375 -2.825596 -0.768680 8.143563 0.548135 -0.329589 2.560486 -3.401951 -18.041820 -14.485882 -1.995248 -30.464873 -7.808371 3.992323 25.270116 -77.303836 5.309821 -38.488856 -2.958698 11.331869 21.415660 15.547462 2.412656 29.903720 9.945707 4.674422 -52.746439 78.640243 -20.271758 46.237412 -11.122015 8.474597 
0.213291 -0.346991 0.880678 -4.406544 0.221699 81.365404 3.850151 -0.183179 -14.826736 -6.403173 2.929463 52.337679 3.199595 12.077348 -33.750836 0.000000 -0.000000 0.000000 -1.384563 2.277042 -20.180346 1.719122 1.138590 59.449343 0.868553 -9.364516 -31.835695 0.000000 -0.000000 0.000000 -1.451035 1.033956 14.841726 2.786680 -2.383178 4.080089 -0.079123 0.834154 -2.843984 -0.797713 7.855213 0.505763 -0.168354 2.177888 -3.361187 -18.030731 -14.507273 -1.994992 -30.473741 -7.839780 3.959994 25.600333 -77.307706 5.007322 -38.571341 -2.901188 11.325429 21.371041 15.587661 2.373432 29.922204 9.918193 4.586044 -52.691117 78.644349 -20.142112 46.232181 -11.153810 8.573599 
0.213473 -0.346264 0.880573 -4.454628 0.189395 81.271816 3.787883 -0.168903 -14.788713 -6.417840 2.883447 52.383595 3.204065 12.148850 -33.737283 0.000000 -0.000000 0.000000 -1.420325 2.282919 -20.148575 1.748373 1.187483 59.472131 0.860833 -9.334946 -31.851612 0.000000 -0.000000 0.000000 -1.442384 1.013022 15.057225 2.731201 -2.357024 3.932511 -0.053829 0.871312 -2.874786 -0.839611 7.601323 0.455071 0.021237 2.049118 -3.228440 -18.044185 -14.560057 -1.945988 -30.553310 -7.821089 3.862000 26.294252 -77.393769 4.388828 -38.236541 -2.847457 11.309709 21.242287 15.697505 2.387949 29.989710 9.806615 4.427145 -52.982444 78.602945 -20.408414 45.979655 -11.148421 8.707847 
0.213561 -0.345621 0.880363 -4.487450 0.208665 81.295842 3.826739 -0.209698 -14.879410 -6.313356 2.991482 52.433853 3.172178 12.086557 -33.812761 0.000000 -0.000000 0.000000 -1.398178 2.256911 -20.282678 1.709439 1.200869 59.566896 0.850789 -9.240124 -31.870047 0.000000 -0.000000 0.000000 -1.422002 1.014680 15.079813 2.722663 -2.355636 3.855184 -0.050919 0.870345 -2.874046 -0.812656 7.380293 0.457342 0.107334 1.980829 -3.189528 -18.066558 -14.522046 -1.925626 -30.641260 -7.829257 3.807615 27.410202 -77.651793 3.326504 -38.502329 -2.735243 11.306202 21.165831 15.693611 2.442651 29.988790 9.840762 4.287349 -53.428775 78.594239 -20.885675 46.127568 -11.226392 8.718943 
0.213634 -0.345015 0.880097 -4.544333 0.234462 81.307781 3.914160 -0.213465 -14.941646 -6.344156 3.078836 52.483252 3.156793 12.010979 -33.907967 0.000000 -0.000000 0.000000 -1.356206 2.279267 -20.400558 1.681302 1.214723 59.663958 0.789680 -9.215671 -31.863368 0.000000 -0.000000 0.000000 -1.383117 0.986518 15.136023 2.673192 -2.333017 3.811859 -0.084707 0.869351 -2.874901 -0.800829 7.249074 0.438105 0.249192 1.821188 -3.396431 -18.012353 -14.398400 -2.049806 -30.719039 -7.773001 3.899063 28.520584 -78.108245 2.363500 -38.576482 -2.743798 11.124276 21.104805 15.668153 2.344221 30.050830 9.863125 4.296986 -53.584801 78.591659 -21.007437 45.920260 -11.173141 8.860211 
0.213684 -0.344414 0.879679 -4.614466 0.233811 81.271446 4.000971 -0.159979 -14.982129 -6.403761 3.182622 52.592331 3.193798 11.945863 -33.954776 0.000000 -0.000000 0.000000 -1.344883 2.294732 -20.448361 1.676241 1.215392 59.736178 0.744815 -9.277321 -31.909022 0.000000 -0.000000 0.000000 -1.402382 0.952063 15.171523 2.650380 -2.288451 3.849913 -0.100556 0.882241 -2.887599 -0.716999 7.075985 0.386034 0.319537 1.800824 -3.433502 -18.095140 -14.376304 -1.947681 -30.680970 -7.704770 3.901466 29.941619 -78.521000 0.945112 -38.258874 -2.990921 11.018063 21.119407 15.789808 2.403818 29.992099 9.804673 4.274580 -54.178422 78.475338 -21.595030 45.868335 -11.081129 8.964440 
0.213703 -0.343733 0.879170 -4.701383 0.173638 81.195651 4.048369 -0.137050 -14.946702 -6.547779 3.306262 52.648555 3.193575 11.916019 -34.056389 0.000000 -0.000000 0.000000 -1.400597 2.304257 -20.525925 1.702043 1.250145 59.919903 0.797084 -9.224862 -31.948962 0.000000 -0.000000 0.000000 -1.489902 0.953669 15.338055 2.614363 -2.210959 3.750981 -0.101733 0.876550 -2.823392 -0.602886 7.011576 0.233193 0.324126 1.617800 -3.386972 -18.145036 -14.226963 -2.013386 -30.656235 -7.816511 3.965039 30.332690 -78.872004 0.450153 -38.154140 -3.360333 10.711621 21.151398 15.716210 2.208706 29.941832 9.871421 4.402116 -53.727165 78.503964 -21.153446 45.879459 -11.067005 8.870706 
